<svg width="33" height="33" viewBox="0 0 33 33" fill="none" xmlns="http://www.w3.org/2000/svg">
<path fill-rule="evenodd" clip-rule="evenodd" d="M16.9891 0.987793C25.8256 0.987793 32.9891 8.15128 32.9891 16.9876C32.9891 25.8243 25.8256 32.9878 16.9891 32.9878C8.15252 32.9878 0.989105 25.8243 0.989105 16.9876C0.989105 8.15128 8.15252 0.987793 16.9891 0.987793Z" fill="#070716"/>
<path d="M19.3285 10.989H20.9473V8.12696C20.668 8.08796 19.7075 8.00021 18.5889 8.00021C16.2549 8.00021 14.6561 9.49046 14.6561 12.2295V14.7502H12.0804V17.9497H14.6561V26.0002H17.8139V17.9505H20.2853L20.6777 14.751H17.8131V12.5467C17.8139 11.622 18.0592 10.989 19.3285 10.989Z" fill="white"/>
</svg>
