<svg width="33" height="33" viewBox="0 0 33 33" fill="none" xmlns="http://www.w3.org/2000/svg">
<path fill-rule="evenodd" clip-rule="evenodd" d="M16.9891 0.987793C25.8257 0.987793 32.9891 8.15128 32.9891 16.9876C32.9891 25.8243 25.8257 32.9878 16.9891 32.9878C8.15255 32.9878 0.989105 25.8243 0.989105 16.9876C0.989105 8.15128 8.15255 0.987793 16.9891 0.987793Z" fill="#070716"/>
<path d="M22.6 10.0002H11.4C10.63 10.0002 9.99998 10.6302 9.99998 11.4002V22.6002C9.99998 23.3702 10.63 24.0002 11.4 24.0002H22.6C23.37 24.0002 24 23.3702 24 22.6002V11.4002C24 10.6302 23.37 10.0002 22.6 10.0002ZM14.2 21.9002H12.1V15.6002H14.2V21.9002ZM13.15 14.4102C12.45 14.4102 11.89 13.8502 11.89 13.1502C11.89 12.4502 12.45 11.8902 13.15 11.8902C13.85 11.8902 14.41 12.4502 14.41 13.1502C14.41 13.8502 13.85 14.4102 13.15 14.4102ZM21.9 21.9002H19.8V18.1902C19.8 17.6302 19.31 17.1402 18.75 17.1402C18.19 17.1402 17.7 17.6302 17.7 18.1902V21.9002H15.6V15.6002H17.7V16.4402C18.05 15.8802 18.82 15.4602 19.45 15.4602C20.78 15.4602 21.9 16.5802 21.9 17.9102V21.9002Z" fill="white"/>
</svg>
