<svg width="33" height="33" viewBox="0 0 33 33" fill="none" xmlns="http://www.w3.org/2000/svg">
<path fill-rule="evenodd" clip-rule="evenodd" d="M16.9891 0.987793C25.8257 0.987793 32.9891 8.15128 32.9891 16.9876C32.9891 25.8243 25.8257 32.9878 16.9891 32.9878C8.15255 32.9878 0.989136 25.8243 0.989136 16.9876C0.989136 8.15128 8.15255 0.987793 16.9891 0.987793Z" fill="#070716"/>
<path d="M24.9844 13.7043C24.9469 12.8541 24.8094 12.2697 24.6125 11.7632C24.4093 11.2256 24.0967 10.7443 23.6872 10.3442C23.2871 9.9379 22.8027 9.62216 22.2713 9.42217C21.7619 9.22523 21.1805 9.08775 20.3304 9.05027C19.4739 9.00961 19.202 9.00021 17.0297 9.00021C14.8574 9.00021 14.5855 9.00962 13.7322 9.0471C12.882 9.08458 12.2976 9.22218 11.7912 9.419C11.2535 9.62216 10.7722 9.93472 10.3721 10.3442C9.96581 10.7443 9.6502 11.2288 9.45008 11.7602C9.25314 12.2697 9.11567 12.8509 9.07818 13.7011C9.03753 14.5576 9.02813 14.8295 9.02813 17.0018C9.02813 19.1741 9.03753 19.446 9.07501 20.2993C9.11249 21.1494 9.25009 21.7339 9.44703 22.2403C9.6502 22.7779 9.96581 23.2592 10.3721 23.6593C10.7722 24.0657 11.2567 24.3814 11.7881 24.5814C12.2976 24.7783 12.8789 24.9158 13.7291 24.9533C14.5823 24.9909 14.8543 25.0002 17.0266 25.0002C19.1989 25.0002 19.4708 24.9909 20.3242 24.9533C21.1743 24.9158 21.7588 24.7783 22.2651 24.5814C23.3404 24.1657 24.1905 23.3155 24.6062 22.2403C24.8031 21.7308 24.9407 21.1494 24.9781 20.2993C25.0156 19.446 25.025 19.1741 25.025 17.0018C25.025 14.8295 25.0218 14.5576 24.9844 13.7043ZM23.5435 20.2368C23.5091 21.0182 23.3778 21.4401 23.2685 21.7214C22.9996 22.4185 22.4464 22.9717 21.7494 23.2405C21.4681 23.3499 21.043 23.4812 20.2647 23.5155C19.4208 23.5531 19.1677 23.5624 17.0329 23.5624C14.898 23.5624 14.6418 23.5531 13.8009 23.5155C13.0195 23.4812 12.5975 23.3499 12.3162 23.2405C11.9694 23.1123 11.6536 22.9092 11.3974 22.6435C11.1317 22.3841 10.9285 22.0715 10.8003 21.7246C10.6909 21.4433 10.5597 21.0182 10.5254 20.24C10.4878 19.396 10.4785 19.1428 10.4785 17.008C10.4785 14.8732 10.4878 14.6169 10.5254 13.7762C10.5597 12.9948 10.6909 12.5728 10.8003 12.2915C10.9285 11.9445 11.1317 11.6289 11.4005 11.3725C11.6599 11.1068 11.9724 10.9037 12.3194 10.7756C12.6007 10.6662 13.0259 10.5349 13.8041 10.5005C14.648 10.463 14.9012 10.4536 17.0359 10.4536C19.1739 10.4536 19.427 10.463 20.2679 10.5005C21.0493 10.5349 21.4712 10.6662 21.7525 10.7756C22.0994 10.9037 22.4151 11.1068 22.6714 11.3725C22.9371 11.632 23.1403 11.9445 23.2685 12.2915C23.3778 12.5728 23.5091 12.9978 23.5435 13.7762C23.581 14.6201 23.5904 14.8732 23.5904 17.008C23.5904 19.1428 23.581 19.3929 23.5435 20.2368Z" fill="white"/>
<path d="M17.0297 12.8917C14.7606 12.8917 12.9195 14.7326 12.9195 17.0018C12.9195 19.2711 14.7606 21.112 17.0297 21.112C19.2989 21.112 21.1399 19.2711 21.1399 17.0018C21.1399 14.7326 19.2989 12.8917 17.0297 12.8917ZM17.0297 19.668C15.5576 19.668 14.3635 18.4741 14.3635 17.0018C14.3635 15.5296 15.5576 14.3357 17.0297 14.3357C18.5019 14.3357 19.6959 15.5296 19.6959 17.0018C19.6959 18.4741 18.5019 19.668 17.0297 19.668Z" fill="white"/>
<path d="M22.262 12.729C22.262 13.2589 21.8324 13.6886 21.3024 13.6886C20.7725 13.6886 20.3428 13.2589 20.3428 12.729C20.3428 12.199 20.7725 11.7695 21.3024 11.7695C21.8324 11.7695 22.262 12.199 22.262 12.729Z" fill="white"/>
</svg>
