<svg width="33" height="33" viewBox="0 0 33 33" fill="none" xmlns="http://www.w3.org/2000/svg">
<path fill-rule="evenodd" clip-rule="evenodd" d="M16.989 0.987793C25.8256 0.987793 32.989 8.15128 32.989 16.9876C32.989 25.8243 25.8256 32.9878 16.989 32.9878C8.1525 32.9878 0.989044 25.8243 0.989044 16.9876C0.989044 8.15128 8.1525 0.987793 16.989 0.987793Z" fill="#070716"/>
<path d="M27 10.799C26.2562 11.1252 25.4637 11.3415 24.6375 11.4465C25.4875 10.939 26.1362 10.1415 26.4412 9.18021C25.6487 9.65271 24.7737 9.98646 23.8412 10.1727C23.0887 9.37146 22.0162 8.87521 20.8462 8.87521C18.5762 8.87521 16.7487 10.7177 16.7487 12.9765C16.7487 13.3015 16.7762 13.614 16.8437 13.9115C13.435 13.7452 10.4187 12.1115 8.39249 9.62271C8.03874 10.2365 7.83124 10.939 7.83124 11.6952C7.83124 13.1152 8.56249 14.374 9.65249 15.1027C8.99374 15.0902 8.34749 14.899 7.79999 14.5977C7.79999 14.6102 7.79999 14.6265 7.79999 14.6427C7.79999 16.6352 9.22124 18.2902 11.085 18.6715C10.7512 18.7627 10.3875 18.8065 10.01 18.8065C9.74749 18.8065 9.48249 18.7915 9.23374 18.7365C9.76499 20.3602 11.2725 21.554 13.065 21.5927C11.67 22.684 9.89874 23.3415 7.98124 23.3415C7.64499 23.3415 7.32249 23.3265 6.99999 23.2852C8.81624 24.4565 10.9687 25.1252 13.29 25.1252C20.835 25.1252 24.96 18.8752 24.96 13.4577C24.96 13.2765 24.9537 13.1015 24.945 12.9277C25.7587 12.3502 26.4425 11.629 27 10.799Z" fill="white"/>
</svg>
